<svg xmlns="http://www.w3.org/2000/svg" viewBox="286.5542 2835.6865 500.7227 125.6177" width="500.72" height="125.62">
  <path fill="#111121" d="M286.5542,2911.2605 L286.5542,2936.9285 L407.8312,2886.1736 L407.8312,2859.6265 L286.5542,2911.2605 Z"/>
  <path fill="#5FA0FF" d="M407.8319,2860.0627 L407.8319,2885.7307 L349.2409,2862.3218 L349.2409,2835.6868 L407.8319,2860.0627 Z"/>
  <path fill="#2563EB" d="M349.2411,2934.2832 L349.2411,2961.3042 L286.5551,2936.9282 L286.5551,2911.2603 L349.2411,2934.2832 Z"/>
  <path fill="#5FA0FF" d="M407.8319,2910.9573 L407.8319,2937.5054 L349.2409,2961.3042 L349.2409,2934.2832 L376.0279,2923.6172 L376.0299,2923.6172 L407.4639,2911.1042 L407.8319,2910.9573 Z"/>
  <path fill="#2563EB" d="M349.2411,2886.3142 L349.2411,2912.4072 L286.5551,2886.1743 L286.5551,2886.0342 L319.4001,2873.6101 L349.2411,2886.3142 Z"/>
  <path fill="#2563EB" d="M349.2406,2835.6865 L349.2406,2862.3206 L319.3996,2873.6106 L286.5546,2886.0334 L286.5546,2859.4866 L349.2406,2835.6865 Z"/>
  <path fill="#5FA0FF" d="M407.8319,2911.2605 L407.8319,2936.9285 L376.0299,2923.6174 L376.0279,2923.6174 L349.2409,2912.4075 L349.2409,2886.3145 L407.4639,2911.1045 L407.8319,2911.2605 Z"/>
  <path fill="#111121" d="M461.3315,2938.5798 C474.1610,2938.5798 482.0366,2932.9907 485.2122,2923.7179 C485.2122,2928.9259 485.5932,2933.2448 486.2284,2936.9285 L505.0280,2936.9285 C504.2659,2931.7205 503.8848,2926.1314 503.8848,2919.3991 L503.8848,2894.1211 C503.8848,2879.6403 493.9769,2871.3837 473.9070,2871.3837 C453.8371,2871.3837 442.1508,2881.0376 441.5157,2894.5022 L462.7288,2894.5022 C462.8558,2888.9131 466.5395,2885.8645 474.1610,2885.8645 C481.4014,2885.8645 483.6879,2888.1510 483.6879,2891.9617 C483.6879,2895.2644 482.1636,2896.7887 476.3204,2897.8049 L461.9666,2900.3454 C444.4372,2903.2669 440.2454,2909.9992 440.2454,2920.1612 C440.2454,2931.3394 448.6291,2938.5798 461.3315,2938.5798 Z M469.5881,2924.3530 C465.1423,2924.3530 461.7126,2922.0666 461.7126,2917.6207 C461.7126,2913.3019 463.9990,2911.1425 470.0962,2909.6182 L473.7799,2908.7290 C477.7177,2907.7128 480.6393,2906.9506 483.6879,2904.6642 L483.6879,2907.0777 C483.6879,2918.5099 477.8447,2924.3530 469.5881,2924.3530 Z M515.6981,2916.4775 C516.2062,2928.1638 524.8439,2938.9609 548.0894,2938.9609 C571.7160,2938.9609 579.2105,2929.4340 579.2105,2917.3667 C579.2105,2905.1723 572.9862,2899.0751 557.9973,2897.5508 L544.9138,2896.2806 C538.9436,2895.6454 537.4193,2893.2320 537.4193,2890.5645 C537.4193,2887.0078 540.2139,2884.3402 547.5813,2884.3402 C554.5677,2884.3402 557.9973,2887.2618 558.6325,2892.2158 L578.4483,2892.2158 C577.1781,2877.3539 564.9837,2871.3837 547.4543,2871.3837 C530.4330,2871.3837 517.4765,2877.4809 517.4765,2892.5968 C517.4765,2903.6480 524.0817,2910.2533 536.4031,2911.6506 L549.8678,2913.1748 C557.2352,2914.0640 558.3784,2916.7315 558.3784,2919.9072 C558.3784,2923.5909 555.5839,2925.8773 548.4705,2925.8773 C540.3409,2925.8773 536.0221,2921.6855 535.5140,2916.4775 Z M588.7373,2916.4775 C589.2454,2928.1638 597.8831,2938.9609 621.1286,2938.9609 C644.7552,2938.9609 652.2496,2929.4340 652.2496,2917.3667 C652.2496,2905.1723 646.0254,2899.0751 631.0365,2897.5508 L617.9530,2896.2806 C611.9828,2895.6454 610.4585,2893.2320 610.4585,2890.5645 C610.4585,2887.0078 613.2531,2884.3402 620.6205,2884.3402 C627.6068,2884.3402 631.0365,2887.2618 631.6716,2892.2158 L651.4875,2892.2158 C650.2172,2877.3539 638.0229,2871.3837 620.4935,2871.3837 C603.4722,2871.3837 590.5156,2877.4809 590.5156,2892.5968 C590.5156,2903.6480 597.1209,2910.2533 609.4423,2911.6506 L622.9069,2913.1748 C630.2744,2914.0640 631.4176,2916.7315 631.4176,2919.9072 C631.4176,2923.5909 628.6230,2925.8773 621.5097,2925.8773 C613.3801,2925.8773 609.0612,2921.6855 608.5531,2916.4775 Z M697.2164,2924.3530 C689.0868,2924.3530 684.1328,2920.9234 682.8626,2910.7614 L730.4968,2910.7614 C730.7509,2909.3641 730.8779,2907.4587 730.8779,2905.4263 C730.8779,2887.7699 722.6213,2871.3837 696.7083,2871.3837 C672.3195,2871.3837 661.6495,2886.6267 661.6495,2905.0453 C661.6495,2922.4477 670.7952,2938.9609 696.7083,2938.9609 C719.8268,2938.9609 728.4644,2928.6719 730.6239,2917.7477 L709.4107,2917.7477 C707.6324,2921.5585 703.6946,2924.3530 697.2164,2924.3530 Z M696.9623,2885.7375 C705.4730,2885.7375 709.4107,2890.0564 710.1729,2898.0589 L683.1166,2898.0589 C684.5139,2888.9131 689.0868,2885.7375 696.9623,2885.7375 Z M785.2445,2936.9285 L785.2445,2919.6531 L770.0015,2919.6531 L770.0015,2889.8023 L787.2769,2889.8023 L787.2769,2873.4161 L770.0015,2873.4161 L770.0015,2858.0461 L758.9504,2858.0461 L749.9316,2873.9242 L736.9751,2879.6403 L736.9751,2889.8023 L748.1533,2889.8023 L748.1533,2911.9046 C748.1533,2928.2908 754.2505,2936.9285 773.6853,2936.9285 Z"/>
</svg>
